<svg width="30" height="30" viewBox="0 0 30 30" fill="none" xmlns="http://www.w3.org/2000/svg">
<path d="M15 11.8889C15.715 11.8889 16.4229 11.7481 17.0835 11.4745C17.744 11.2008 18.3442 10.7998 18.8498 10.2942C19.3554 9.78868 19.7564 9.18849 20.03 8.52794C20.3036 7.86739 20.4444 7.15942 20.4444 6.44444C20.4444 5.72947 20.3036 5.0215 20.03 4.36095C19.7564 3.7004 19.3554 3.1002 18.8498 2.59464C18.3442 2.08908 17.744 1.68804 17.0835 1.41443C16.4229 1.14082 15.715 1 15 1C13.556 1 12.1712 1.57361 11.1502 2.59464C10.1292 3.61567 9.55556 5.00049 9.55556 6.44444C9.55556 7.8884 10.1292 9.27322 11.1502 10.2942C12.1712 11.3153 13.556 11.8889 15 11.8889ZM1 28.0667V29H29V28.0667C29 24.5822 29 22.84 28.3218 21.5084C27.7252 20.3377 26.7734 19.3859 25.6027 18.7893C24.2711 18.1111 22.5289 18.1111 19.0444 18.1111H10.9556C7.47111 18.1111 5.72889 18.1111 4.39733 18.7893C3.2266 19.3859 2.27476 20.3377 1.67822 21.5084C1 22.84 1 24.5822 1 28.0667Z" fill="#687176" stroke="#687176" stroke-width="2" stroke-linecap="round" stroke-linejoin="round"/>
</svg>
